<svg width="356" height="85" viewBox="0 0 356 85" fill="none" xmlns="http://www.w3.org/2000/svg">
<g clip-path="url(#clip0_1309_7918)">
<path fill-rule="evenodd" clip-rule="evenodd" d="M0.046875 22.3507C7.31973 8.70843 21.5806 0 37.3014 0C60.6073 0 79.5049 18.9004 79.5049 42.2034C79.5049 65.5083 60.6045 84.4068 37.3014 84.4068C21.5975 84.4068 7.32725 75.7134 0.0478155 62.0571V58.5946C6.53942 73.3358 21.134 82.8923 37.3014 82.8923C59.7706 82.8923 77.9912 64.6716 77.9912 42.2034C77.9912 19.7343 59.7706 1.51361 37.3014 1.51361C21.1124 1.51361 6.53096 11.0917 0.0478155 25.8122V22.3507H0.046875Z" fill="white"/>
<path fill-rule="evenodd" clip-rule="evenodd" d="M58.1359 30.3051C53.6524 11.7733 31.3722 1.91505 14.1171 11.9876C12.6993 12.8149 10.6292 14.1988 6.52832 18.5854C9.9504 14.2665 12.4775 12.5413 13.8378 11.4997C20.3426 6.52075 28.4766 3.5631 37.3016 3.5631C47.9721 3.5631 57.632 7.8877 64.6246 14.8804C71.6164 21.8731 75.9419 31.5329 75.9419 42.2034C75.9419 49.7235 73.8953 56.8074 70.0765 62.6795C68.8787 64.5221 66.2915 66.4917 62.515 66.4917C57.3819 66.4917 53.2199 62.357 53.2199 57.2558C53.2199 54.8529 54.1431 52.6643 55.6567 51.0218C60.3442 43.7866 59.233 34.8441 58.1359 30.3051Z" fill="white"/>
<path fill-rule="evenodd" clip-rule="evenodd" d="M28.0488 20.4008C7.73164 14.1433 0.916628 30.8974 0 35.2765C0.517072 31.202 1.44874 29.1281 1.90847 27.9407C4.10555 22.2604 8.08137 17.2458 13.6009 13.8566C20.2749 9.75855 27.9426 8.81278 34.9437 10.5972C41.9449 12.3815 48.2804 16.8951 52.291 23.7148C54.16 26.8934 55.7526 31.3552 56.028 33.6529C56.139 34.5799 56.2443 35.19 56.2443 35.9572C56.2443 40.6964 52.5815 44.5378 48.0632 44.5378C43.545 44.5378 39.8822 40.6964 39.8822 35.9572C39.8127 35.7485 39.7826 35.6714 39.7995 35.5868C38.6469 28.5292 32.2484 21.6945 28.0488 20.4008Z" fill="white"/>
<path fill-rule="evenodd" clip-rule="evenodd" d="M16.4861 35.9205C7.45712 29.1234 1.09902 37.8713 1.01628 41.3319C0.955176 38.7108 1.22029 37.0919 1.39704 36.2759C2.27136 32.2427 4.41392 28.4672 7.76924 25.6157C11.8268 22.1673 16.8866 20.7572 21.796 21.1736C27.386 21.6484 31.5329 25.3393 31.5329 30.1133C31.5329 34.8873 27.6634 38.7569 22.8894 38.7569C20.351 38.7578 18.0674 37.6635 16.4861 35.9205Z" fill="white"/>
<path d="M124.558 26.4417L110.247 51.8391H124.735V57.3603H100L114.311 31.9629H100.795V26.4417H124.558ZM135.38 51.4416H148.454V57.3603H134.496H128.931V26.4417H135.38H148.056V32.3604H135.38V38.8975H144.964V44.7278H135.38V51.4416ZM186.219 26.4417V57.3603H179.593V40.9293L172.394 57.3603H166.828L159.717 41.0176V57.3603H153.092V26.4417H159.452L169.655 48.7473L179.858 26.4417H186.219ZM224.646 26.4417V57.3603H218.021V40.9293L210.821 57.3603H205.256L198.144 41.0176V57.3603H191.519V26.4417H197.879L208.083 48.7473L218.286 26.4417H224.646ZM245.317 26C253.93 26 261.351 32.4929 261.351 41.901C261.351 51.3091 253.93 57.802 245.317 57.802C236.704 57.802 229.284 51.3091 229.284 41.901C229.284 32.4929 236.704 26 245.317 26ZM245.317 51.7508C250.529 51.7508 254.637 47.643 254.637 41.901C254.637 36.159 250.529 32.0512 245.317 32.0512C240.105 32.0512 235.998 36.159 235.998 41.901C235.998 47.643 240.105 51.7508 245.317 51.7508Z" fill="white"/>
<path d="M290.677 26C297.81 26 301.58 30.4068 301.58 35.7678C301.58 41.265 297.81 45.6264 290.677 45.6264H282.318V57.802H281V26H290.677ZM290.859 44.2634C296.583 44.2634 300.263 40.9469 300.263 35.7678C300.263 30.4977 296.583 27.3175 290.859 27.3175H282.318V44.2634H290.859ZM326.84 57.802L322.797 48.7611H304.533L300.49 57.802H299.082L313.302 26H313.983L328.249 57.802H326.84ZM305.079 47.4891H322.252L313.665 28.2716L305.079 47.4891ZM355.144 26L343.468 42.1736V57.802H342.151V42.1736L330.52 26H332.11L342.832 40.9015L353.554 26H355.144Z" fill="white"/>
</g>
<defs>
<clipPath id="clip0_1309_7918">
<rect width="355.144" height="84.4068" fill="white"/>
</clipPath>
</defs>
</svg>
