<svg width="80" height="85" viewBox="0 0 80 85" fill="none" xmlns="http://www.w3.org/2000/svg">
<path fill-rule="evenodd" clip-rule="evenodd" d="M0.046875 22.3507C7.31973 8.70843 21.5806 0 37.3014 0C60.6073 0 79.5049 18.9004 79.5049 42.2034C79.5049 65.5083 60.6045 84.4068 37.3014 84.4068C21.5975 84.4068 7.32725 75.7134 0.0478155 62.0571V58.5946C6.53942 73.3358 21.134 82.8923 37.3014 82.8923C59.7706 82.8923 77.9912 64.6716 77.9912 42.2034C77.9912 19.7343 59.7706 1.51361 37.3014 1.51361C21.1124 1.51361 6.53096 11.0917 0.0478155 25.8122V22.3507H0.046875Z" fill="white"/>
<path fill-rule="evenodd" clip-rule="evenodd" d="M58.1359 30.3051C53.6524 11.7733 31.3722 1.91505 14.1171 11.9876C12.6993 12.8149 10.6292 14.1988 6.52832 18.5854C9.9504 14.2665 12.4775 12.5413 13.8378 11.4997C20.3426 6.52075 28.4766 3.5631 37.3016 3.5631C47.9721 3.5631 57.632 7.8877 64.6246 14.8804C71.6164 21.8731 75.9419 31.5329 75.9419 42.2034C75.9419 49.7235 73.8953 56.8074 70.0765 62.6795C68.8787 64.5221 66.2915 66.4917 62.515 66.4917C57.3819 66.4917 53.2199 62.357 53.2199 57.2559C53.2199 54.8529 54.1431 52.6643 55.6567 51.0218C60.3442 43.7866 59.233 34.8441 58.1359 30.3051Z" fill="white"/>
<path fill-rule="evenodd" clip-rule="evenodd" d="M28.0488 20.4008C7.73164 14.1433 0.916628 30.8974 0 35.2765C0.517072 31.202 1.44874 29.1281 1.90847 27.9407C4.10555 22.2604 8.08137 17.2458 13.6009 13.8566C20.2749 9.75855 27.9426 8.81278 34.9437 10.5972C41.9449 12.3815 48.2804 16.8951 52.291 23.7148C54.16 26.8934 55.7526 31.3552 56.028 33.6529C56.139 34.5799 56.2443 35.19 56.2443 35.9572C56.2443 40.6964 52.5815 44.5378 48.0632 44.5378C43.545 44.5378 39.8822 40.6964 39.8822 35.9572C39.8127 35.7485 39.7826 35.6714 39.7995 35.5868C38.6469 28.5292 32.2484 21.6945 28.0488 20.4008Z" fill="white"/>
<path fill-rule="evenodd" clip-rule="evenodd" d="M16.4861 35.9205C7.45712 29.1234 1.09902 37.8713 1.01628 41.3319C0.955176 38.7108 1.22029 37.0919 1.39704 36.2759C2.27136 32.2427 4.41392 28.4672 7.76924 25.6157C11.8268 22.1673 16.8866 20.7572 21.796 21.1736C27.386 21.6484 31.5329 25.3393 31.5329 30.1133C31.5329 34.8873 27.6634 38.7569 22.8894 38.7569C20.351 38.7578 18.0674 37.6635 16.4861 35.9205Z" fill="white"/>
</svg>
