<svg width="355.1440788629753" height="84.40682518328799" viewBox="0 0 355.1440788629753 84.40682518328799" class="css-1j8o68f"><defs id="SvgjsDefs1995"></defs><g id="SvgjsG1996" featurekey="2ou6gm-0" transform="matrix(0.940130843195376,0,0,0.940130843195376,-7.254049661408127,-4.803128671546162)" fill="#ffffff"><g xmlns="http://www.w3.org/2000/svg"><path fill-rule="evenodd" clip-rule="evenodd" d="M7.766,28.883C15.502,14.372,30.671,5.109,47.393,5.109   c24.79,0,44.891,20.104,44.891,44.891c0,24.789-20.104,44.891-44.891,44.891c-16.704,0-31.883-9.247-39.626-23.773v-3.683   c6.905,15.68,22.429,25.845,39.626,25.845c23.9,0,43.281-19.381,43.281-43.28c0-23.9-19.381-43.281-43.281-43.281   c-17.22,0-32.73,10.188-39.626,25.846V28.883L7.766,28.883z"></path><path fill-rule="evenodd" clip-rule="evenodd" d="M69.554,37.344C64.785,17.632,41.086,7.146,22.732,17.86   c-1.508,0.88-3.71,2.352-8.072,7.018c3.64-4.594,6.328-6.429,7.775-7.537c6.919-5.296,15.571-8.442,24.958-8.442   c11.35,0,21.625,4.6,29.063,12.038C83.893,28.375,88.494,38.65,88.494,50c0,7.999-2.177,15.534-6.239,21.78   c-1.274,1.96-4.026,4.055-8.043,4.055c-5.46,0-9.887-4.398-9.887-9.824c0-2.556,0.982-4.884,2.592-6.631   C71.903,51.684,70.721,42.172,69.554,37.344L69.554,37.344z"></path><path fill-rule="evenodd" clip-rule="evenodd" d="M37.551,26.809C15.94,20.153,8.691,37.974,7.716,42.632   c0.55-4.334,1.541-6.54,2.03-7.803c2.337-6.042,6.566-11.376,12.437-14.981c7.099-4.359,15.255-5.365,22.702-3.467   c7.447,1.898,14.186,6.699,18.452,13.953c1.988,3.381,3.682,8.127,3.975,10.571c0.118,0.986,0.23,1.635,0.23,2.451   c0,5.041-3.896,9.127-8.702,9.127c-4.806,0-8.702-4.086-8.702-9.127c-0.074-0.222-0.106-0.304-0.088-0.394   C48.824,35.455,42.018,28.185,37.551,26.809L37.551,26.809z"></path><path fill-rule="evenodd" clip-rule="evenodd" d="M25.252,43.317c-9.604-7.23-16.367,2.075-16.455,5.756   c-0.065-2.788,0.217-4.51,0.405-5.378c0.93-4.29,3.209-8.306,6.778-11.339c4.316-3.668,9.698-5.168,14.92-4.725   c5.946,0.505,10.357,4.431,10.357,9.509s-4.116,9.194-9.194,9.194C29.363,46.335,26.934,45.171,25.252,43.317L25.252,43.317z"></path></g></g><g id="SvgjsG1997" featurekey="nameLeftFeature-0" transform="matrix(2.208471543372972,0,0,2.208471543372972,98.45407034087144,13.190864627204245)" fill="#ffffff"><path d="M11.82 6 l-6.48 11.5 l6.56 0 l0 2.5 l-11.2 0 l6.48 -11.5 l-6.12 0 l0 -2.5 l10.76 0 z M16.72 17.32 l5.92 0 l0 2.68 l-6.32 0 l-2.52 0 l0 -14 l2.92 0 l5.74 0 l0 2.68 l-5.74 0 l0 2.96 l4.34 0 l0 2.64 l-4.34 0 l0 3.04 z M39.739999999999995 6 l0 14 l-3 0 l0 -7.44 l-3.26 7.44 l-2.52 0 l-3.22 -7.4 l0 7.4 l-3 0 l0 -14 l2.88 0 l4.62 10.1 l4.62 -10.1 l2.88 0 z M57.14 6 l0 14 l-3 0 l0 -7.44 l-3.26 7.44 l-2.52 0 l-3.22 -7.4 l0 7.4 l-3 0 l0 -14 l2.88 0 l4.62 10.1 l4.62 -10.1 l2.88 0 z M66.5 5.800000000000001 c3.9 0 7.26 2.94 7.26 7.2 s-3.36 7.2 -7.26 7.2 s-7.26 -2.94 -7.26 -7.2 s3.36 -7.2 7.26 -7.2 z M66.5 17.46 c2.36 0 4.22 -1.86 4.22 -4.46 s-1.86 -4.46 -4.22 -4.46 s-4.22 1.86 -4.22 4.46 s1.86 4.46 4.22 4.46 z"></path></g><g id="SvgjsG1998" featurekey="nameRightFeature-0" transform="matrix(2.2715708205905965,0,0,2.2715708205905965,264.64469052501545,12.370576159625797)" fill="#ffffff"><path d="M11.46 6 c3.14 0 4.8 1.94 4.8 4.3 c0 2.42 -1.66 4.34 -4.8 4.34 l-3.68 0 l0 5.36 l-0.58 0 l0 -14 l4.26 0 z M11.54 14.04 c2.52 0 4.14 -1.46 4.14 -3.74 c0 -2.32 -1.62 -3.72 -4.14 -3.72 l-3.76 0 l0 7.46 l3.76 0 z M27.380000000000003 20 l-1.78 -3.98 l-8.04 0 l-1.78 3.98 l-0.62 0 l6.26 -14 l0.3 0 l6.28 14 l-0.62 0 z M17.8 15.46 l7.56 0 l-3.78 -8.46 z M39.84 6 l-5.14 7.12 l0 6.88 l-0.58 0 l0 -6.88 l-5.12 -7.12 l0.7 0 l4.72 6.56 l4.72 -6.56 l0.7 0 z"></path></g></svg>